<mxfile host="app.diagrams.net" agent="Mozilla/5.0 (X11; Linux x86_64) AppleWebKit/537.36 (KHTML, like Gecko) Chrome/134.0.0.0 Safari/537.36" version="26.1.1">
  <diagram name="Page-1" id="LPOWcZZ8S_0rPXLDJ1uy">
    <mxGraphModel dx="880" dy="481" grid="1" gridSize="10" guides="1" tooltips="1" connect="1" arrows="1" fold="1" page="1" pageScale="1" pageWidth="850" pageHeight="1100" math="0" shadow="0">
      <root>
        <mxCell id="0" />
        <mxCell id="1" parent="0" />
        <mxCell id="VyeaLTXF4dzLQbILJjxC-2" value="" style="rounded=0;whiteSpace=wrap;html=1;movable=0;resizable=0;rotatable=0;deletable=0;editable=0;locked=1;connectable=0;" vertex="1" parent="1">
          <mxGeometry x="101" y="130" width="989" height="410" as="geometry" />
        </mxCell>
        <mxCell id="VyeaLTXF4dzLQbILJjxC-3" value="Actor" style="shape=umlActor;verticalLabelPosition=bottom;verticalAlign=top;html=1;outlineConnect=0;" vertex="1" parent="1">
          <mxGeometry y="280" width="30" height="60" as="geometry" />
        </mxCell>
        <mxCell id="VyeaLTXF4dzLQbILJjxC-5" value="API GATEAWAY" style="ellipse;whiteSpace=wrap;html=1;aspect=fixed;" vertex="1" parent="1">
          <mxGeometry x="150" y="270" width="80" height="80" as="geometry" />
        </mxCell>
        <mxCell id="VyeaLTXF4dzLQbILJjxC-6" value="Service Mitra" style="rounded=0;whiteSpace=wrap;html=1;" vertex="1" parent="1">
          <mxGeometry x="300" y="180" width="150" height="60" as="geometry" />
        </mxCell>
        <mxCell id="VyeaLTXF4dzLQbILJjxC-7" value="" style="image;aspect=fixed;html=1;points=[];align=center;fontSize=12;image=img/lib/azure2/databases/Azure_Database_PostgreSQL_Server.svg;" vertex="1" parent="1">
          <mxGeometry x="460" y="146" width="40.5" height="54" as="geometry" />
        </mxCell>
        <mxCell id="VyeaLTXF4dzLQbILJjxC-8" value="" style="image;sketch=0;aspect=fixed;html=1;points=[];align=center;fontSize=12;image=img/lib/mscae/Docker.svg;" vertex="1" parent="1">
          <mxGeometry x="425" y="210" width="50" height="41" as="geometry" />
        </mxCell>
        <mxCell id="VyeaLTXF4dzLQbILJjxC-10" value="" style="sketch=0;points=[[0.5,0,0],[1,0.5,0],[0.5,1,0],[0,0.5,0],[0.145,0.145,0],[0.8555,0.145,0],[0.855,0.8555,0],[0.145,0.855,0]];verticalLabelPosition=bottom;html=1;verticalAlign=top;aspect=fixed;align=center;pointerEvents=1;shape=mxgraph.cisco19.lock;fillColor=#005073;strokeColor=none;" vertex="1" parent="1">
          <mxGeometry x="300" y="180" width="32" height="32" as="geometry" />
        </mxCell>
        <mxCell id="VyeaLTXF4dzLQbILJjxC-11" value="Service Member" style="rounded=0;whiteSpace=wrap;html=1;" vertex="1" parent="1">
          <mxGeometry x="800" y="177.5" width="150" height="60" as="geometry" />
        </mxCell>
        <mxCell id="VyeaLTXF4dzLQbILJjxC-12" value="" style="image;aspect=fixed;html=1;points=[];align=center;fontSize=12;image=img/lib/azure2/databases/Azure_Database_PostgreSQL_Server.svg;" vertex="1" parent="1">
          <mxGeometry x="960" y="143.5" width="40.5" height="54" as="geometry" />
        </mxCell>
        <mxCell id="VyeaLTXF4dzLQbILJjxC-13" value="" style="image;sketch=0;aspect=fixed;html=1;points=[];align=center;fontSize=12;image=img/lib/mscae/Docker.svg;" vertex="1" parent="1">
          <mxGeometry x="925" y="207.5" width="50" height="41" as="geometry" />
        </mxCell>
        <mxCell id="VyeaLTXF4dzLQbILJjxC-14" value="" style="sketch=0;points=[[0.5,0,0],[1,0.5,0],[0.5,1,0],[0,0.5,0],[0.145,0.145,0],[0.8555,0.145,0],[0.855,0.8555,0],[0.145,0.855,0]];verticalLabelPosition=bottom;html=1;verticalAlign=top;aspect=fixed;align=center;pointerEvents=1;shape=mxgraph.cisco19.lock;fillColor=#005073;strokeColor=none;" vertex="1" parent="1">
          <mxGeometry x="800" y="177.5" width="32" height="32" as="geometry" />
        </mxCell>
        <mxCell id="VyeaLTXF4dzLQbILJjxC-15" value="Service Product" style="rounded=0;whiteSpace=wrap;html=1;" vertex="1" parent="1">
          <mxGeometry x="550" y="177.5" width="150" height="60" as="geometry" />
        </mxCell>
        <mxCell id="VyeaLTXF4dzLQbILJjxC-16" value="" style="image;aspect=fixed;html=1;points=[];align=center;fontSize=12;image=img/lib/azure2/databases/Azure_Database_PostgreSQL_Server.svg;" vertex="1" parent="1">
          <mxGeometry x="710" y="143.5" width="40.5" height="54" as="geometry" />
        </mxCell>
        <mxCell id="VyeaLTXF4dzLQbILJjxC-17" value="" style="image;sketch=0;aspect=fixed;html=1;points=[];align=center;fontSize=12;image=img/lib/mscae/Docker.svg;" vertex="1" parent="1">
          <mxGeometry x="675" y="207.5" width="50" height="41" as="geometry" />
        </mxCell>
        <mxCell id="VyeaLTXF4dzLQbILJjxC-18" value="" style="sketch=0;points=[[0.5,0,0],[1,0.5,0],[0.5,1,0],[0,0.5,0],[0.145,0.145,0],[0.8555,0.145,0],[0.855,0.8555,0],[0.145,0.855,0]];verticalLabelPosition=bottom;html=1;verticalAlign=top;aspect=fixed;align=center;pointerEvents=1;shape=mxgraph.cisco19.lock;fillColor=#005073;strokeColor=none;" vertex="1" parent="1">
          <mxGeometry x="550" y="177.5" width="32" height="32" as="geometry" />
        </mxCell>
        <mxCell id="VyeaLTXF4dzLQbILJjxC-19" value="Service Transaction" style="rounded=0;whiteSpace=wrap;html=1;" vertex="1" parent="1">
          <mxGeometry x="550" y="334" width="150" height="60" as="geometry" />
        </mxCell>
        <mxCell id="VyeaLTXF4dzLQbILJjxC-20" value="" style="image;aspect=fixed;html=1;points=[];align=center;fontSize=12;image=img/lib/azure2/databases/Azure_Database_PostgreSQL_Server.svg;" vertex="1" parent="1">
          <mxGeometry x="500.5" y="380" width="40.5" height="54" as="geometry" />
        </mxCell>
        <mxCell id="VyeaLTXF4dzLQbILJjxC-21" value="" style="image;sketch=0;aspect=fixed;html=1;points=[];align=center;fontSize=12;image=img/lib/mscae/Docker.svg;" vertex="1" parent="1">
          <mxGeometry x="675" y="364" width="50" height="41" as="geometry" />
        </mxCell>
        <mxCell id="VyeaLTXF4dzLQbILJjxC-22" value="" style="sketch=0;points=[[0.5,0,0],[1,0.5,0],[0.5,1,0],[0,0.5,0],[0.145,0.145,0],[0.8555,0.145,0],[0.855,0.8555,0],[0.145,0.855,0]];verticalLabelPosition=bottom;html=1;verticalAlign=top;aspect=fixed;align=center;pointerEvents=1;shape=mxgraph.cisco19.lock;fillColor=#005073;strokeColor=none;" vertex="1" parent="1">
          <mxGeometry x="550" y="334" width="32" height="32" as="geometry" />
        </mxCell>
      </root>
    </mxGraphModel>
  </diagram>
</mxfile>
